<svg width="24" height="24" viewBox="0 0 24 24" fill="none" xmlns="http://www.w3.org/2000/svg">
<path d="M22.7546 11.3295L12.6632 1.23805C12.2403 0.815195 11.6575 0.575195 11.0518 0.575195H2.85749C1.60035 0.575195 0.571777 1.60377 0.571777 2.86091V11.0552C0.571777 11.6609 0.811777 12.2438 1.24606 12.6666L11.3375 22.758C12.2289 23.6494 13.6803 23.6494 14.5718 22.758L22.7661 14.5638C23.6576 13.6723 23.6576 12.2323 22.7546 11.3295ZM5.71464 7.43234C4.76606 7.43234 4.00036 6.66662 4.00036 5.71806C4.00036 4.76947 4.76606 4.00377 5.71464 4.00377C6.66321 4.00377 7.42893 4.76947 7.42893 5.71806C7.42893 6.66662 6.66321 7.43234 5.71464 7.43234Z" fill="#FFF"/>
</svg>
