<svg width="24" height="24" viewBox="0 0 24 24" fill="none" xmlns="http://www.w3.org/2000/svg">
<path d="M5.9948 10.6703C8.56812 10.6703 10.6615 8.57692 10.6615 6.00358C10.6615 3.43026 8.56812 1.33691 5.9948 1.33691C3.42146 1.33691 1.32812 3.43026 1.32812 6.00358C1.32812 8.57692 3.42146 10.6703 5.9948 10.6703ZM5.9948 4.00358C7.10146 4.00358 7.9948 4.89692 7.9948 6.00358C7.9948 7.11026 7.10146 8.00358 5.9948 8.00358C4.88812 8.00358 3.9948 7.11026 3.9948 6.00358C3.9948 4.89692 4.88812 4.00358 5.9948 4.00358Z" fill="#FFF"/>
<path d="M20.782 1.33105L1.33203 20.781L3.21763 22.6666L22.6676 3.21666L20.782 1.33105Z" fill="#FFF"/>
<path d="M17.9948 13.3369C15.4215 13.3369 13.3281 15.4303 13.3281 18.0036C13.3281 20.5769 15.4215 22.6703 17.9948 22.6703C20.5682 22.6703 22.6614 20.5769 22.6614 18.0036C22.6614 15.4303 20.5682 13.3369 17.9948 13.3369ZM17.9948 20.0037C16.8881 20.0037 15.9948 19.1103 15.9948 18.0036C15.9948 16.8969 16.8881 16.0036 17.9948 16.0036C19.1015 16.0036 19.9948 16.8969 19.9948 18.0036C19.9948 19.1103 19.1015 20.0037 17.9948 20.0037Z" fill="#FFF"/>
</svg>
