<svg width="13" height="12" viewBox="0 0 13 12" fill="none" xmlns="http://www.w3.org/2000/svg">
<path d="M11.8776 5.66425L6.83185 0.618538C6.62042 0.407109 6.32899 0.287109 6.02613 0.287109H1.92899C1.30042 0.287109 0.786133 0.801395 0.786133 1.42997V5.52711C0.786133 5.82996 0.906133 6.12139 1.12328 6.33282L6.16899 11.3785C6.61471 11.8242 7.34042 11.8242 7.78613 11.3785L11.8833 7.2814C12.329 6.83568 12.329 6.11568 11.8776 5.66425ZM3.35756 3.71568C2.88327 3.71568 2.50042 3.33282 2.50042 2.85854C2.50042 2.38425 2.88327 2.0014 3.35756 2.0014C3.83185 2.0014 4.21471 2.38425 4.21471 2.85854C4.21471 3.33282 3.83185 3.71568 3.35756 3.71568Z" fill="#222222"/>
</svg>
