<svg width="20" height="20" viewBox="0 0 20 20" fill="none" xmlns="http://www.w3.org/2000/svg">
<path d="M3.2207 15.3872H2.4707C1.87397 15.3872 1.30167 15.1502 0.879713 14.7282C0.457756 14.3062 0.220703 13.7339 0.220703 13.1372V11.5697H1.7207V13.1372C1.7207 13.3361 1.79972 13.5269 1.94037 13.6675C2.08103 13.8082 2.27179 13.8872 2.4707 13.8872H3.2207V15.3872ZM0.220703 6.37971H1.7207V10.1522H0.220703V6.37971ZM1.7207 4.88721H0.220703V2.63721C0.220703 2.04047 0.457756 1.46817 0.879713 1.04622C1.30167 0.62426 1.87397 0.387207 2.4707 0.387207H4.7207V1.88721H2.4707C2.27179 1.88721 2.08103 1.96622 1.94037 2.10688C1.79972 2.24753 1.7207 2.43829 1.7207 2.63721V4.88721ZM6.2207 0.387207H9.2207V1.88721H6.2207V0.387207ZM15.2207 3.38721H13.7207V2.63721C13.7207 2.43829 13.6417 2.24753 13.501 2.10688C13.3604 1.96622 13.1696 1.88721 12.9707 1.88721H10.7582V0.387207H12.9707C13.5674 0.387207 14.1397 0.62426 14.5617 1.04622C14.9837 1.46817 15.2207 2.04047 15.2207 2.63721V3.38721ZM17.4707 19.8872H6.9707C6.37397 19.8872 5.80167 19.6502 5.37971 19.2282C4.95776 18.8062 4.7207 18.2339 4.7207 17.6372V7.13721C4.7207 6.54047 4.95776 5.96817 5.37971 5.54622C5.80167 5.12426 6.37397 4.88721 6.9707 4.88721H17.4707C18.0674 4.88721 18.6397 5.12426 19.0617 5.54622C19.4837 5.96817 19.7207 6.54047 19.7207 7.13721V17.6372C19.7207 18.2339 19.4837 18.8062 19.0617 19.2282C18.6397 19.6502 18.0674 19.8872 17.4707 19.8872ZM6.9707 6.38721C6.77179 6.38721 6.58103 6.46622 6.44037 6.60688C6.29972 6.74753 6.2207 6.93829 6.2207 7.13721V17.6372C6.2207 17.8361 6.29972 18.0269 6.44037 18.1675C6.58103 18.3082 6.77179 18.3872 6.9707 18.3872H17.4707C17.6696 18.3872 17.8604 18.3082 18.001 18.1675C18.1417 18.0269 18.2207 17.8361 18.2207 17.6372V7.13721C18.2207 6.93829 18.1417 6.74753 18.001 6.60688C17.8604 6.46622 17.6696 6.38721 17.4707 6.38721H6.9707Z" fill="white"/>
</svg>
