<svg width="12" height="12" viewBox="0 0 12 12" fill="none" xmlns="http://www.w3.org/2000/svg">
<g clip-path="url(#clip0_6961_24404)">
<path d="M2.9974 5.33464C4.28406 5.33464 5.33073 4.28797 5.33073 3.0013C5.33073 1.71464 4.28406 0.667969 2.9974 0.667969C1.71073 0.667969 0.664062 1.71464 0.664062 3.0013C0.664062 4.28797 1.71073 5.33464 2.9974 5.33464ZM2.9974 2.0013C3.55073 2.0013 3.9974 2.44797 3.9974 3.0013C3.9974 3.55464 3.55073 4.0013 2.9974 4.0013C2.44406 4.0013 1.9974 3.55464 1.9974 3.0013C1.9974 2.44797 2.44406 2.0013 2.9974 2.0013Z" fill="#222222"/>
<path d="M10.391 0.665039L0.666016 10.39L1.60882 11.3328L11.3338 1.60784L10.391 0.665039Z" fill="#222222"/>
<path d="M8.9974 6.66797C7.71073 6.66797 6.66406 7.71464 6.66406 9.0013C6.66406 10.2879 7.71073 11.3346 8.9974 11.3346C10.2841 11.3346 11.3307 10.2879 11.3307 9.0013C11.3307 7.71464 10.2841 6.66797 8.9974 6.66797ZM8.9974 10.0013C8.44406 10.0013 7.9974 9.55464 7.9974 9.0013C7.9974 8.44797 8.44406 8.0013 8.9974 8.0013C9.55073 8.0013 9.9974 8.44797 9.9974 9.0013C9.9974 9.55464 9.55073 10.0013 8.9974 10.0013Z" fill="#222222"/>
</g>
<defs>
<clipPath id="clip0_6961_24404">
<rect width="12" height="12" fill="white"/>
</clipPath>
</defs>
</svg>
