<svg width="18" height="17" viewBox="0 0 18 17" fill="none" xmlns="http://www.w3.org/2000/svg">
<path d="M7.82053 1.02113C8.45337 0.32629 9.5466 0.32629 10.1794 1.02113L10.9932 1.91466C11.313 2.26584 11.7726 2.45623 12.2471 2.43406L13.4544 2.37764C14.3931 2.33376 15.1662 3.10685 15.1224 4.04564L15.0659 5.25287C15.0437 5.72732 15.2341 6.18698 15.5853 6.50679L16.4788 7.32053C17.1737 7.95337 17.1737 9.0466 16.4788 9.67945L15.5853 10.4932C15.2341 10.813 15.0437 11.2726 15.0659 11.7471L15.1224 12.9544C15.1662 13.8931 14.3931 14.6662 13.4544 14.6224L12.2471 14.5659C11.7726 14.5437 11.313 14.7341 10.9932 15.0853L10.1794 15.9788C9.5466 16.6737 8.45337 16.6737 7.82053 15.9788L7.00679 15.0853C6.68698 14.7341 6.22732 14.5437 5.75287 14.5659L4.54563 14.6224C3.60685 14.6662 2.83376 13.8931 2.87764 12.9544L2.93406 11.7471C2.95623 11.2726 2.76584 10.813 2.41466 10.4932L1.52113 9.67945C0.82629 9.0466 0.82629 7.95337 1.52113 7.32053L2.41466 6.50679C2.76584 6.18698 2.95623 5.72732 2.93406 5.25287L2.87764 4.04563C2.83376 3.10685 3.60685 2.33376 4.54564 2.37764L5.75287 2.43406C6.22732 2.45623 6.68698 2.26584 7.00679 1.91466L7.82053 1.02113Z" fill="black" stroke="black"/>
<path d="M5.5 8L7.83333 10L12.5 6" fill="black"/>
<path d="M5.5 8L7.83333 10L12.5 6" stroke="white" stroke-width="2" stroke-linecap="round" stroke-linejoin="round"/>
</svg>
