<svg width="24" height="24" viewBox="0 0 24 24" fill="none" xmlns="http://www.w3.org/2000/svg">
<path d="M10.2308 0.781697C11.1801 -0.260566 12.8199 -0.260566 13.7692 0.781697L14.9898 2.12199C15.4694 2.64875 16.159 2.93435 16.8707 2.90109L18.6815 2.81646C20.0896 2.75064 21.2494 3.91028 21.1836 5.31846L21.0989 7.1293C21.0656 7.84098 21.3512 8.53047 21.878 9.01019L23.2182 10.2308C24.2606 11.1801 24.2606 12.8199 23.2182 13.7692L21.878 14.9898C21.3512 15.4694 21.0656 16.159 21.0989 16.8707L21.1836 18.6815C21.2494 20.0896 20.0896 21.2494 18.6815 21.1836L16.8707 21.0989C16.159 21.0656 15.4694 21.3512 14.9898 21.878L13.7692 23.2182C12.8199 24.2606 11.1801 24.2606 10.2308 23.2182L9.01019 21.878C8.53047 21.3512 7.84098 21.0656 7.1293 21.0989L5.31845 21.1836C3.91028 21.2494 2.75064 20.0896 2.81646 18.6815L2.90109 16.8707C2.93435 16.159 2.64875 15.4694 2.12199 14.9898L0.781697 13.7692C-0.260566 12.8199 -0.260566 11.1801 0.781697 10.2308L2.12199 9.01019C2.64875 8.53047 2.93435 7.84098 2.90109 7.1293L2.81646 5.31845C2.75064 3.91028 3.91028 2.75064 5.31846 2.81646L7.1293 2.90109C7.84098 2.93435 8.53047 2.64875 9.01019 2.12199L10.2308 0.781697Z" fill="#FF4747"/>
<path d="M8.41406 12.0003L10.807 14.3932L15.5928 9.60742" stroke="white" stroke-width="2" stroke-linecap="round" stroke-linejoin="round"/>
</svg>
