<svg width="6" height="6" viewBox="0 0 6 6" fill="none" xmlns="http://www.w3.org/2000/svg">
<path d="M0.178106 2.82371L2.8266 0.174044C2.93758 0.0630159 3.09056 0 3.24952 0H5.40011C5.73005 0 6 0.270068 6 0.600151V2.75169C6 2.91073 5.93701 3.06377 5.82303 3.1748L3.17454 5.82446C2.94058 6.05851 2.55966 6.05851 2.3257 5.82446L0.175092 3.67293C-0.0588636 3.43887 -0.0588636 3.06077 0.178106 2.82371ZM4.65026 1.80046C4.89921 1.80046 5.10017 1.5994 5.10017 1.35034C5.10017 1.10128 4.89921 0.900228 4.65026 0.900228C4.4013 0.900228 4.20034 1.10128 4.20034 1.35034C4.20034 1.5994 4.4013 1.80046 4.65026 1.80046Z" fill="#222222"/>
</svg>
