<svg width="96" height="60" viewBox="0 0 96 60" fill="none" xmlns="http://www.w3.org/2000/svg">
<rect width="96" height="60" rx="4" fill="#FEEE00"/>
<path d="M24.827 20.5058C23.9647 20.1689 23.0335 20 22.1023 20C21.5504 20 20.9985 20.0674 20.4465 20.1689L18.2218 23.9124C19.1361 23.4232 20.1531 23.1869 21.2051 23.2045C21.8429 23.2045 22.4636 23.2884 23.0675 23.4573L24.827 20.5058ZM11.4629 30.5723C11.4629 35.9678 16.1528 40.1663 21.6193 40.1663C27.3442 40.1663 31.9662 35.6476 31.9662 30.1505C31.9662 26.9304 30.3793 24.0969 28.0169 22.2086L26.2922 25.126C27.8093 26.3905 28.6896 28.2456 28.6896 30.2013C28.6896 33.9447 25.5167 37.0135 21.6193 37.0135C17.7218 37.0135 14.5659 33.9281 14.5659 30.1173V30.1007C14.5659 29.6457 14.5999 29.1897 14.6867 28.7513L11.4629 30.5723ZM43.3821 26.1376C42.5367 26.121 41.7263 26.4071 41.0885 26.9304L40.9159 26.3231H39.3639V34.0287H41.347V29.8469C41.347 28.9535 41.9508 28.0591 43.1236 28.0591C44.0378 28.0591 44.5718 28.683 44.5718 29.7453V34.0453H46.5549V29.5774C46.5549 27.4869 45.3133 26.1376 43.3821 26.1376ZM66.4035 26.1376C64.1788 26.1376 62.4372 27.9078 62.4372 30.1681C62.4372 32.4274 64.1788 34.1976 66.4035 34.1976C68.6282 34.1976 70.3698 32.4274 70.3698 30.1681C70.3698 27.9078 68.6282 26.1376 66.4035 26.1376ZM68.3687 30.1681C68.3687 31.3993 67.5413 32.2927 66.4205 32.2927C65.2996 32.2927 64.4543 31.3993 64.4543 30.1681C64.4543 28.9368 65.2817 28.0434 66.4025 28.0434C67.5243 28.0434 68.3687 28.9368 68.3687 30.1681ZM54.6772 26.1376C52.4525 26.1376 50.7109 27.9078 50.7109 30.1681C50.7109 32.4274 52.4525 34.1976 54.6772 34.1976C56.9019 34.1976 58.6435 32.4274 58.6435 30.1681C58.6435 27.9078 56.9019 26.1376 54.6772 26.1376ZM56.6254 30.1681C56.6254 31.3993 55.798 32.2927 54.6772 32.2927C53.5564 32.2927 52.7289 31.3993 52.7289 30.1681C52.7289 28.9368 53.5564 28.0434 54.6772 28.0434C55.798 28.0434 56.6254 28.9368 56.6254 30.1681ZM78.5779 26.1376C77.7326 26.121 76.9221 26.4071 76.2843 26.9304L76.1117 26.3231H74.5597V34.0287H76.5259V29.8469C76.5259 28.9535 77.1297 28.0591 78.3024 28.0591C79.2166 28.0591 79.7685 28.683 79.7685 29.7453V34.0453H81.7508V29.5774C81.7338 27.4869 80.4922 26.1376 78.5779 26.1376Z" fill="#010101"/>
</svg>
