<svg width="306" height="64" viewBox="0 0 306 64" fill="none" xmlns="http://www.w3.org/2000/svg">
<path d="M57.2002 45.2002C56.3002 44.3002 54.9002 44.4002 54.0002 45.2002C49.3002 50.1002 42.6002 53.1002 35.3002 53.1002C20.8002 53.1002 9.1002 41.3002 9.1002 26.7002C9.1002 19.3002 12.1002 12.6002 17.0002 7.9002C17.4002 7.5002 17.4002 6.9002 17.0002 6.5002C16.6002 6.1002 16.0002 6.1002 15.7002 6.5002C10.2002 11.9002 6.7002 19.4002 6.7002 27.8002C6.7002 44.2002 19.9002 57.4002 36.1002 57.4002C44.4002 57.4002 51.9002 53.9002 57.2002 48.4002C58.1002 47.5002 58.1002 46.0002 57.2002 45.2002Z" fill="url(#paint0_linear_6803_14722)"/>
<path d="M35.7998 38.1C35.7998 42.3 39.2998 45.7 43.4998 45.7C47.6998 45.7 51.2998 42.4 51.2998 38.1C51.2998 33.8 47.6998 30.5 43.4998 30.5C39.3998 30.5 35.7998 33.9 35.7998 38.1ZM43.4998 34.9C45.2998 34.9 46.5998 36.2 46.5998 38.1C46.5998 40 45.2998 41.4 43.4998 41.4C41.7998 41.4 40.3998 40.1 40.3998 38.1C40.4998 36.2 41.7998 34.9 43.4998 34.9Z" fill="url(#paint1_linear_6803_14722)"/>
<path d="M23.2 29.7C27.4 29.7 31 26.4 31 22.1C31 17.8 27.4 14.5 23.2 14.5C19 14.5 15.5 17.8 15.5 22.1C15.5 26.4 19 29.7 23.2 29.7ZM23.2 18.9C25 18.9 26.3 20.2 26.3 22.1C26.3 24 25 25.4 23.2 25.4C21.5 25.4 20.1 24.1 20.1 22.1C20.1 20.2 21.5 18.9 23.2 18.9Z" fill="url(#paint2_linear_6803_14722)"/>
<path d="M23.6 41.9C24.6 42.6 26 42.4 26.7 41.4L42.7 19.6C43 19.2 43 18.6 42.5 18.2C42.1 17.8 41.4 17.9 41 18.3L23.1 38.8C22.4 39.8 22.6 41.2 23.6 41.9Z" fill="url(#paint3_linear_6803_14722)"/>
<path d="M86.6002 39.2002C86.1002 39.2002 85.7002 39.4002 85.4002 39.7002C83.7002 41.1002 82.1002 41.9002 79.6002 41.9002C75.2002 41.9002 72.0002 38.2002 72.0002 33.7002V33.6002C72.0002 29.1002 75.2002 25.4002 79.6002 25.4002C81.8002 25.4002 83.5002 26.2002 85.1002 27.5002C85.4002 27.7002 85.8002 27.9002 86.3002 27.9002C87.4002 27.9002 88.3002 27.0002 88.3002 25.9002C88.3002 25.2002 87.9002 24.6002 87.5002 24.3002C85.5002 22.7002 83.1002 21.7002 79.6002 21.7002C72.6002 21.7002 67.7002 27.1002 67.7002 33.7002V33.8002C67.7002 40.4002 72.7002 45.7002 79.5002 45.7002C83.2002 45.7002 85.7002 44.5002 87.9002 42.6002C88.3002 42.3002 88.6002 41.8002 88.6002 41.1002C88.6002 40.1002 87.7002 39.2002 86.6002 39.2002ZM110.6 22.0002C109.4 22.0002 108.6 22.9002 108.6 24.0002V35.5002C108.6 39.8002 106.4 41.9002 102.8 41.9002C99.2002 41.9002 97.0002 39.6002 97.0002 35.3002V24.0002C97.0002 22.9002 96.1002 22.0002 95.0002 22.0002C93.8002 22.0002 93.0002 22.9002 93.0002 24.0002V35.5002C93.0002 42.2002 96.8002 45.7002 102.8 45.7002C108.8 45.7002 112.7 42.2002 112.7 35.3002V24.0002C112.6 22.9002 111.7 22.0002 110.6 22.0002ZM127.3 22.1002H120.2C119 22.1002 118.2 23.0002 118.2 24.1002V43.3002C118.2 44.4002 119.1 45.3002 120.2 45.3002C121.3 45.3002 122.2 44.4002 122.2 43.3002V37.7002H126.8C131.9 37.7002 136 35.0002 136 29.8002V29.7002C136 25.2002 132.7 22.1002 127.3 22.1002ZM131.9 30.0002C131.9 32.4002 130 34.1002 126.9 34.1002H122.2V25.8002H126.9C130 25.8002 131.9 27.3002 131.9 30.0002ZM151.3 21.7002C144.2 21.7002 139.2 27.1002 139.2 33.7002V33.8002C139.2 40.3002 144.2 45.7002 151.3 45.7002C158.4 45.7002 163.4 40.3002 163.4 33.7002V33.6002C163.4 27.1002 158.4 21.7002 151.3 21.7002ZM159.1 33.8002C159.1 38.3002 155.9 41.9002 151.3 41.9002C146.7 41.9002 143.4 38.2002 143.4 33.7002V33.6002C143.4 29.1002 146.6 25.4002 151.2 25.4002C155.8 25.4002 159.1 29.2002 159.1 33.8002ZM187.2 21.9002C185.8 21.9002 184.7 23.0002 184.7 24.4002V36.3002L174.9 23.5002C174.2 22.6002 173.5 22.0002 172.3 22.0002H171.8C170.4 22.0002 169.3 23.1002 169.3 24.5002V42.9002C169.3 44.3002 170.4 45.4002 171.8 45.4002C173.2 45.4002 174.3 44.3002 174.3 42.9002V30.6002L184.5 43.9002C185.2 44.8002 185.9 45.4002 187.1 45.4002H187.3C188.7 45.4002 189.8 44.3002 189.8 42.9002V24.5002C189.7 23.1002 188.6 21.9002 187.2 21.9002ZM207.5 23.8002C206.9 22.5002 205.9 21.8002 204.6 21.8002H204.3C202.9 21.8002 201.9 22.6002 201.3 23.8002L193.2 42.0002C193 42.4002 192.9 42.7002 192.9 43.1002C192.9 44.4002 193.9 45.5002 195.2 45.5002C196.3 45.5002 197.1 44.9002 197.5 43.9002L199.1 40.1002H209.3L210.9 43.7002C211.4 44.8002 212.2 45.5002 213.3 45.5002C214.7 45.5002 215.7 44.4002 215.7 43.1002C215.7 42.8002 215.6 42.4002 215.4 42.1002L207.5 23.8002ZM201.2 35.6002L204.4 28.0002L207.6 35.6002H201.2ZM232.7 22.1002H217.8C216.5 22.1002 215.5 23.2002 215.5 24.4002C215.5 25.7002 216.6 26.7002 217.8 26.7002H222.7V42.8002C222.7 44.2002 223.8 45.3002 225.2 45.3002C226.6 45.3002 227.7 44.2002 227.7 42.8002V26.8002H232.6C233.9 26.8002 234.9 25.7002 234.9 24.5002C235.1 23.2002 234 22.1002 232.7 22.1002ZM241.6 21.9002C240.2 21.9002 239.1 23.0002 239.1 24.4002V42.8002C239.1 44.2002 240.2 45.3002 241.6 45.3002C243 45.3002 244.1 44.2002 244.1 42.8002V24.5002C244.1 23.1002 243 21.9002 241.6 21.9002ZM261.2 21.7002C254.1 21.7002 248.9 27.1002 248.9 33.7002V33.8002C248.9 40.4002 254 45.7002 261.1 45.7002C268.2 45.7002 273.4 40.3002 273.4 33.7002V33.6002C273.4 27.1002 268.3 21.7002 261.2 21.7002ZM268.1 33.8002C268.1 37.8002 265.3 41.0002 261.2 41.0002C257.1 41.0002 254.2 37.7002 254.2 33.7002V33.6002C254.2 29.6002 257 26.4002 261.1 26.4002C265.2 26.4002 268.1 29.7002 268.1 33.8002ZM296 21.9002C294.6 21.9002 293.5 23.0002 293.5 24.4002V36.3002L283.7 23.5002C283 22.6002 282.3 22.0002 281.1 22.0002H280.6C279.2 22.0002 278.1 23.1002 278.1 24.5002V42.9002C278.1 44.3002 279.2 45.4002 280.6 45.4002C282 45.4002 283.1 44.3002 283.1 42.9002V30.6002L293.3 43.9002C294 44.8002 294.7 45.4002 295.9 45.4002H296.1C297.5 45.4002 298.6 44.3002 298.6 42.9002V24.5002C298.5 23.1002 297.4 21.9002 296 21.9002Z" fill="#3F352E"/>
<defs>
<linearGradient id="paint0_linear_6803_14722" x1="32.2942" y1="1.1272" x2="32.2942" y2="61.1272" gradientUnits="userSpaceOnUse">
<stop stop-color="#FF7349"/>
<stop offset="1" stop-color="#F8565C"/>
</linearGradient>
<linearGradient id="paint1_linear_6803_14722" x1="43.5648" y1="1.127" x2="43.5648" y2="61.127" gradientUnits="userSpaceOnUse">
<stop stop-color="#FF7349"/>
<stop offset="1" stop-color="#F8565C"/>
</linearGradient>
<linearGradient id="paint2_linear_6803_14722" x1="23.235" y1="1.127" x2="23.235" y2="61.127" gradientUnits="userSpaceOnUse">
<stop stop-color="#FF7349"/>
<stop offset="1" stop-color="#F8565C"/>
</linearGradient>
<linearGradient id="paint3_linear_6803_14722" x1="32.734" y1="1.12695" x2="32.734" y2="61.127" gradientUnits="userSpaceOnUse">
<stop stop-color="#FF7349"/>
<stop offset="1" stop-color="#F8565C"/>
</linearGradient>
</defs>
</svg>
