<svg width="20" height="15" viewBox="0 0 20 15" fill="none" xmlns="http://www.w3.org/2000/svg">
<path d="M15 1.5C15 0.947734 14.5523 0.5 14 0.5H1C0.447735 0.5 0 0.947734 0 1.5C0 2.05227 0.447735 2.5 1 2.5H14C14.5523 2.5 15 2.05223 15 1.5ZM1 6.5H19C19.5523 6.5 20 6.94777 20 7.5C20 8.05227 19.5523 8.5 19 8.5H1C0.447735 8.5 0 8.05227 0 7.5C0 6.94777 0.447735 6.5 1 6.5ZM1 12.5H10C10.5522 12.5 11 12.9477 11 13.5C11 14.0522 10.5522 14.5 10 14.5H1C0.447735 14.5 0 14.0522 0 13.5C0 12.9477 0.447735 12.5 1 12.5Z" fill="black"/>
</svg>
