<svg width="19" height="19" viewBox="0 0 19 19" fill="none" xmlns="http://www.w3.org/2000/svg">
<path fill-rule="evenodd" clip-rule="evenodd" d="M8.75016 2.00016C5.29838 2.00016 2.50016 4.79838 2.50016 8.25016C2.50016 11.7019 5.29838 14.5002 8.75016 14.5002C12.2019 14.5002 15.0002 11.7019 15.0002 8.25016C15.0002 4.79838 12.2019 2.00016 8.75016 2.00016ZM0.833496 8.25016C0.833496 3.87791 4.37791 0.333496 8.75016 0.333496C13.1224 0.333496 16.6668 3.87791 16.6668 8.25016C16.6668 12.6224 13.1224 16.1668 8.75016 16.1668C4.37791 16.1668 0.833496 12.6224 0.833496 8.25016Z" fill="black"/>
<path fill-rule="evenodd" clip-rule="evenodd" d="M14.7561 13.0776L18.9228 17.2443L17.7443 18.4228L13.5776 14.2561L14.7561 13.0776Z" fill="black"/>
</svg>
