<svg width="21" height="21" viewBox="0 0 21 21" fill="none" xmlns="http://www.w3.org/2000/svg">
<path d="M10.5004 0.899902C5.19639 0.899902 0.900391 5.1959 0.900391 10.4999C0.900391 12.6119 1.57239 14.5559 2.72439 16.1399L1.40439 19.6199L5.22039 18.5159C6.73239 19.5239 8.55639 20.0999 10.5004 20.0999C15.8044 20.0999 20.1004 15.8039 20.1004 10.4999C20.1004 5.1959 15.8044 0.899902 10.5004 0.899902ZM15.6124 14.4839L14.5804 15.4919C13.5004 16.5719 10.6444 15.3959 8.12439 12.8519C5.60439 10.3319 4.47639 7.4759 5.48439 6.4199L6.51639 5.3879C6.90039 5.0039 7.54839 5.0039 7.95639 5.3879L9.46839 6.8999C9.99639 7.4279 9.78039 8.3399 9.08439 8.5559C8.60439 8.7239 8.26839 9.2519 8.43639 9.7319C8.70039 10.8599 10.1644 12.2519 11.2444 12.5159C11.7244 12.6359 12.2764 12.3479 12.4204 11.8679C12.6364 11.1719 13.5484 10.9559 14.0764 11.4839L15.5884 12.9959C15.9724 13.4039 15.9724 14.0519 15.6124 14.4839Z" fill="#EA2D57"/>
</svg>
